<svg xmlns="http://www.w3.org/2000/svg" viewBox="0 0 1150 1500" width="1150" height="1500" role="img" aria-label="Threshold I, shown installed on a gallery wall">
  <rect width="1150" height="1500" fill="#f4ede1" />
  <path d="M0,43.814234726596624 Q575,37.91101984446868 1150,43.814234726596624 L1150,303.35061128484085 Q575,297.4473964027129 0,303.35061128484085 Z" fill="#8a3b2b" opacity="0.58" />
<path d="M0,292.8937814082019 Q575,296.28583977697417 1150,292.8937814082019 L1150,547.4396793334745 Q575,550.8317377022468 0,547.4396793334745 Z" fill="#f1c56b" opacity="0.71" />
<path d="M0,527.9987923393492 Q575,518.3701066079084 1150,527.9987923393492 L1150,797.8229781950358 Q575,788.194292463595 0,797.8229781950358 Z" fill="#d98a5f" opacity="0.59" />
<path d="M0,793.0451724270824 Q575,772.5993277144153 1150,793.0451724270824 L1150,1056.8887696566526 Q575,1036.4429249439854 0,1056.8887696566526 Z" fill="#f1c56b" opacity="0.64" />
<path d="M0,1008.9221652189735 Q575,1036.2848372024018 1150,1008.9221652189735 L1150,1243.0527022632305 Q575,1270.4153742466588 0,1243.0527022632305 Z" fill="#8a3b2b" opacity="0.59" />
<path d="M0,1262.2877080691978 Q575,1257.6497107651085 1150,1262.2877080691978 L1150,1505.9770401148126 Q575,1501.3390428107232 0,1505.9770401148126 Z" fill="#d98a5f" opacity="0.76" />
<circle cx="1103" cy="258" r="92" fill="#f1c56b" opacity="0.37" />
<circle cx="1047" cy="1367" r="177" fill="#d98a5f" opacity="0.46" />
<circle cx="78" cy="171" r="146" fill="#d98a5f" opacity="0.33" />
</svg>